<svg xmlns="http://www.w3.org/2000/svg" xmlns:xlink="http://www.w3.org/1999/xlink" width="200" zoomAndPan="magnify" viewBox="0 0 150 30.000001" height="40" preserveAspectRatio="xMidYMid meet" version="1.0"><defs><g/><clipPath id="fe6716d133"><path d="M 22 0 L 129 0 L 129 29.03125 L 22 29.03125 Z M 22 0 " clip-rule="nonzero"/></clipPath><clipPath id="cfced73333"><path d="M 0.625 4 L 13 4 L 13 25 L 0.625 25 Z M 0.625 4 " clip-rule="nonzero"/></clipPath><clipPath id="11216253e9"><rect x="0" width="107" y="0" height="30"/></clipPath></defs><g clip-path="url(#fe6716d133)"><g transform="matrix(1, 0, 0, 1, 22, 0.000000000000005692)"><g clip-path="url(#11216253e9)"><g clip-path="url(#cfced73333)"><g fill="#000000" fill-opacity="1"><g transform="translate(0.950939, 22.138436)"><g><path d="M 4.859375 2.078125 C 3.960938 2.078125 3.128906 1.914062 2.359375 1.59375 C 1.597656 1.28125 0.988281 0.800781 0.53125 0.15625 C 0.0820312 -0.488281 -0.140625 -1.273438 -0.140625 -2.203125 C -0.140625 -3.328125 0.164062 -4.140625 0.78125 -4.640625 C 1.40625 -5.148438 2.117188 -5.40625 2.921875 -5.40625 C 2.484375 -4.9375 2.15625 -4.421875 1.9375 -3.859375 C 1.71875 -3.304688 1.609375 -2.753906 1.609375 -2.203125 C 1.609375 -1.242188 1.921875 -0.445312 2.546875 0.1875 C 3.171875 0.820312 4.078125 1.140625 5.265625 1.140625 C 6.015625 1.140625 6.726562 1.003906 7.40625 0.734375 C 8.082031 0.460938 8.632812 0.0664062 9.0625 -0.453125 C 9.488281 -0.984375 9.703125 -1.613281 9.703125 -2.34375 C 9.703125 -2.976562 9.539062 -3.535156 9.21875 -4.015625 C 8.90625 -4.503906 8.507812 -4.921875 8.03125 -5.265625 C 7.550781 -5.609375 6.914062 -6.019531 6.125 -6.5 C 5.3125 -6.976562 4.660156 -7.394531 4.171875 -7.75 C 3.679688 -8.113281 3.269531 -8.550781 2.9375 -9.0625 C 2.601562 -9.570312 2.4375 -10.160156 2.4375 -10.828125 C 2.4375 -11.753906 2.722656 -12.710938 3.296875 -13.703125 C 3.867188 -14.703125 4.675781 -15.535156 5.71875 -16.203125 C 6.769531 -16.878906 7.945312 -17.21875 9.25 -17.21875 C 10.125 -17.21875 10.757812 -17 11.15625 -16.5625 C 11.5625 -16.132812 11.765625 -15.554688 11.765625 -14.828125 C 11.765625 -14.023438 11.570312 -13.128906 11.1875 -12.140625 C 10.800781 -11.148438 10.378906 -10.289062 9.921875 -9.5625 C 9.390625 -9.675781 9.125 -10.019531 9.125 -10.59375 C 9.125 -10.894531 9.179688 -11.234375 9.296875 -11.609375 C 9.421875 -11.992188 9.597656 -12.472656 9.828125 -13.046875 C 10.066406 -13.671875 10.242188 -14.175781 10.359375 -14.5625 C 10.484375 -14.957031 10.546875 -15.304688 10.546875 -15.609375 C 10.546875 -15.941406 10.441406 -16.195312 10.234375 -16.375 C 10.035156 -16.550781 9.691406 -16.640625 9.203125 -16.640625 C 8.265625 -16.640625 7.390625 -16.347656 6.578125 -15.765625 C 5.773438 -15.179688 5.132812 -14.472656 4.65625 -13.640625 C 4.175781 -12.816406 3.9375 -12.0625 3.9375 -11.375 C 3.9375 -10.863281 4.078125 -10.410156 4.359375 -10.015625 C 4.640625 -9.617188 4.988281 -9.269531 5.40625 -8.96875 C 5.820312 -8.675781 6.382812 -8.332031 7.09375 -7.9375 C 7.957031 -7.445312 8.648438 -7.003906 9.171875 -6.609375 C 9.703125 -6.222656 10.15625 -5.726562 10.53125 -5.125 C 10.90625 -4.53125 11.09375 -3.828125 11.09375 -3.015625 C 11.09375 -1.960938 10.785156 -1.050781 10.171875 -0.28125 C 9.554688 0.476562 8.769531 1.0625 7.8125 1.46875 C 6.863281 1.875 5.878906 2.078125 4.859375 2.078125 Z M 4.859375 2.078125 "/></g></g></g></g><g fill="#000000" fill-opacity="1"><g transform="translate(13.768373, 22.138436)"><g><path d="M 2.578125 1.046875 C 1.640625 1.046875 0.921875 0.785156 0.421875 0.265625 C -0.078125 -0.242188 -0.328125 -0.90625 -0.328125 -1.71875 C -0.328125 -2.65625 -0.0195312 -3.664062 0.59375 -4.75 C 1.21875 -5.84375 2.003906 -6.757812 2.953125 -7.5 C 3.898438 -8.238281 4.828125 -8.609375 5.734375 -8.609375 C 6.722656 -8.609375 7.21875 -8.117188 7.21875 -7.140625 C 7.21875 -6.359375 6.921875 -5.628906 6.328125 -4.953125 C 5.742188 -4.273438 4.988281 -3.722656 4.0625 -3.296875 C 3.132812 -2.867188 2.210938 -2.609375 1.296875 -2.515625 C 1.222656 -2.242188 1.1875 -1.957031 1.1875 -1.65625 C 1.1875 -1.070312 1.332031 -0.585938 1.625 -0.203125 C 1.914062 0.171875 2.398438 0.359375 3.078125 0.359375 C 4.054688 0.359375 5.035156 -0.046875 6.015625 -0.859375 C 7.003906 -1.671875 7.8125 -2.675781 8.4375 -3.875 L 8.71875 -3.65625 C 8.082031 -2.238281 7.195312 -1.097656 6.0625 -0.234375 C 4.9375 0.617188 3.773438 1.046875 2.578125 1.046875 Z M 1.40625 -2.96875 C 2.082031 -3.207031 2.785156 -3.539062 3.515625 -3.96875 C 4.242188 -4.394531 4.867188 -4.898438 5.390625 -5.484375 C 5.910156 -6.066406 6.171875 -6.675781 6.171875 -7.3125 C 6.171875 -7.507812 6.132812 -7.648438 6.0625 -7.734375 C 5.988281 -7.816406 5.859375 -7.859375 5.671875 -7.859375 C 5.171875 -7.859375 4.628906 -7.613281 4.046875 -7.125 C 3.460938 -6.632812 2.925781 -6.003906 2.4375 -5.234375 C 1.957031 -4.472656 1.613281 -3.71875 1.40625 -2.96875 Z M 1.40625 -2.96875 "/></g></g></g><g fill="#000000" fill-opacity="1"><g transform="translate(21.731444, 22.138436)"><g><path d="M 1.546875 0.9375 C 1.078125 0.9375 0.738281 0.707031 0.53125 0.25 C 0.332031 -0.207031 0.234375 -0.859375 0.234375 -1.703125 C 0.234375 -2.003906 0.28125 -3.046875 0.375 -4.828125 C 0.414062 -5.304688 0.472656 -5.613281 0.546875 -5.75 C 0.628906 -5.882812 0.828125 -5.953125 1.140625 -5.953125 C 1.410156 -5.953125 1.582031 -5.898438 1.65625 -5.796875 C 1.726562 -5.691406 1.765625 -5.488281 1.765625 -5.1875 C 1.765625 -4.863281 1.734375 -4.273438 1.671875 -3.421875 C 1.585938 -2.648438 1.546875 -1.957031 1.546875 -1.34375 C 1.546875 -0.863281 1.585938 -0.519531 1.671875 -0.3125 C 1.753906 -0.101562 1.898438 0 2.109375 0 C 2.628906 0 3.265625 -0.535156 4.015625 -1.609375 C 4.765625 -2.691406 5.441406 -3.898438 6.046875 -5.234375 C 6.078125 -6.234375 6.179688 -6.929688 6.359375 -7.328125 C 6.546875 -7.734375 6.804688 -7.9375 7.140625 -7.9375 C 7.410156 -7.9375 7.625 -7.835938 7.78125 -7.640625 C 7.9375 -7.441406 8.015625 -7.238281 8.015625 -7.03125 C 8.015625 -6.875 7.929688 -6.648438 7.765625 -6.359375 C 7.578125 -5.992188 7.429688 -5.628906 7.328125 -5.265625 C 7.222656 -4.910156 7.171875 -4.429688 7.171875 -3.828125 C 7.171875 -3.296875 7.242188 -2.859375 7.390625 -2.515625 C 7.546875 -2.179688 7.847656 -2.015625 8.296875 -2.015625 C 8.648438 -2.015625 8.976562 -2.148438 9.28125 -2.421875 C 9.582031 -2.691406 9.882812 -3.144531 10.1875 -3.78125 L 10.5 -3.53125 C 9.925781 -2.195312 9.132812 -1.53125 8.125 -1.53125 C 7.582031 -1.53125 7.140625 -1.722656 6.796875 -2.109375 C 6.453125 -2.503906 6.226562 -3.082031 6.125 -3.84375 C 5.46875 -2.539062 4.71875 -1.414062 3.875 -0.46875 C 3.039062 0.46875 2.265625 0.9375 1.546875 0.9375 Z M 1.546875 0.9375 "/></g></g></g><g fill="#000000" fill-opacity="1"><g transform="translate(31.464087, 22.138436)"><g><path d="M 4.59375 -10.328125 C 4.300781 -10.328125 4.0625 -10.394531 3.875 -10.53125 C 3.695312 -10.664062 3.609375 -10.859375 3.609375 -11.109375 C 3.609375 -11.429688 3.796875 -11.71875 4.171875 -11.96875 C 4.554688 -12.226562 4.953125 -12.359375 5.359375 -12.359375 C 5.878906 -12.359375 6.140625 -12.113281 6.140625 -11.625 C 6.140625 -11.320312 5.972656 -11.03125 5.640625 -10.75 C 5.316406 -10.46875 4.96875 -10.328125 4.59375 -10.328125 Z M 1.71875 0.625 C 1.132812 0.625 0.679688 0.4375 0.359375 0.0625 C 0.0351562 -0.3125 -0.125 -0.796875 -0.125 -1.390625 C -0.125 -2.003906 0.0507812 -2.863281 0.40625 -3.96875 C 0.769531 -5.070312 1.21875 -6.035156 1.75 -6.859375 C 2.289062 -7.691406 2.816406 -8.109375 3.328125 -8.109375 C 3.460938 -8.109375 3.582031 -8.054688 3.6875 -7.953125 C 3.789062 -7.859375 3.84375 -7.734375 3.84375 -7.578125 C 3.84375 -7.359375 3.585938 -6.820312 3.078125 -5.96875 C 2.554688 -5.09375 2.140625 -4.304688 1.828125 -3.609375 C 1.515625 -2.921875 1.359375 -2.269531 1.359375 -1.65625 C 1.359375 -1.09375 1.445312 -0.710938 1.625 -0.515625 C 1.8125 -0.316406 2.113281 -0.21875 2.53125 -0.21875 C 3.78125 -0.21875 5.007812 -1.4375 6.21875 -3.875 L 6.4375 -3.640625 C 5.988281 -2.296875 5.328125 -1.25 4.453125 -0.5 C 3.585938 0.25 2.675781 0.625 1.71875 0.625 Z M 1.71875 0.625 "/></g></g></g><g fill="#000000" fill-opacity="1"><g transform="translate(37.227151, 22.138436)"><g><path d="M 1.984375 0.71875 C 1.328125 0.71875 0.84375 0.492188 0.53125 0.046875 C 0.226562 -0.398438 0.078125 -1 0.078125 -1.75 C 0.078125 -3.175781 0.566406 -5.117188 1.546875 -7.578125 C 2.535156 -10.046875 3.640625 -12.269531 4.859375 -14.25 C 6.078125 -16.226562 6.957031 -17.21875 7.5 -17.21875 C 7.726562 -17.21875 7.914062 -17.019531 8.0625 -16.625 C 8.21875 -16.238281 8.296875 -15.84375 8.296875 -15.4375 C 8.296875 -14.707031 7.992188 -13.628906 7.390625 -12.203125 C 6.796875 -10.773438 6.007812 -9.328125 5.03125 -7.859375 C 4.0625 -6.398438 3.03125 -5.210938 1.9375 -4.296875 C 1.726562 -3.378906 1.625 -2.578125 1.625 -1.890625 C 1.625 -0.660156 1.972656 -0.046875 2.671875 -0.046875 C 3.265625 -0.046875 3.867188 -0.421875 4.484375 -1.171875 C 5.097656 -1.921875 5.644531 -2.820312 6.125 -3.875 L 6.484375 -3.6875 C 5.109375 -0.75 3.609375 0.71875 1.984375 0.71875 Z M 2.15625 -5.109375 C 3.03125 -5.992188 3.882812 -7.097656 4.71875 -8.421875 C 5.550781 -9.753906 6.226562 -11.03125 6.75 -12.25 C 7.28125 -13.46875 7.546875 -14.347656 7.546875 -14.890625 C 7.546875 -15.148438 7.492188 -15.28125 7.390625 -15.28125 C 7.160156 -15.28125 6.695312 -14.734375 6 -13.640625 C 5.3125 -12.546875 4.597656 -11.207031 3.859375 -9.625 C 3.128906 -8.050781 2.5625 -6.546875 2.15625 -5.109375 Z M 2.15625 -5.109375 "/></g></g></g><g fill="#000000" fill-opacity="1"><g transform="translate(42.870649, 22.138436)"><g><path d="M 2.5625 1.34375 C 1.757812 1.34375 1.109375 1.078125 0.609375 0.546875 C 0.117188 0.0234375 -0.125 -0.726562 -0.125 -1.71875 C -0.125 -2.757812 0.132812 -3.769531 0.65625 -4.75 C 1.1875 -5.738281 1.863281 -6.539062 2.6875 -7.15625 C 3.507812 -7.769531 4.316406 -8.078125 5.109375 -8.078125 C 5.722656 -8.078125 6.160156 -7.90625 6.421875 -7.5625 C 6.679688 -7.21875 6.8125 -6.800781 6.8125 -6.3125 C 6.8125 -5.832031 6.703125 -5.421875 6.484375 -5.078125 C 6.273438 -4.734375 5.988281 -4.5625 5.625 -4.5625 C 5.351562 -4.5625 5.117188 -4.679688 4.921875 -4.921875 C 5.160156 -5.035156 5.367188 -5.285156 5.546875 -5.671875 C 5.722656 -6.066406 5.8125 -6.445312 5.8125 -6.8125 C 5.8125 -7.019531 5.769531 -7.171875 5.6875 -7.265625 C 5.601562 -7.359375 5.46875 -7.40625 5.28125 -7.40625 C 4.738281 -7.40625 4.160156 -7.082031 3.546875 -6.4375 C 2.929688 -5.789062 2.410156 -5.003906 1.984375 -4.078125 C 1.566406 -3.160156 1.359375 -2.316406 1.359375 -1.546875 C 1.359375 -0.972656 1.492188 -0.5 1.765625 -0.125 C 2.035156 0.25 2.484375 0.4375 3.109375 0.4375 C 4.078125 0.4375 5.035156 0.0390625 5.984375 -0.75 C 6.929688 -1.550781 7.660156 -2.597656 8.171875 -3.890625 L 8.484375 -3.65625 C 8.117188 -2.695312 7.617188 -1.835938 6.984375 -1.078125 C 6.347656 -0.328125 5.640625 0.257812 4.859375 0.6875 C 4.085938 1.125 3.320312 1.34375 2.5625 1.34375 Z M 2.5625 1.34375 "/></g></g></g><g fill="#000000" fill-opacity="1"><g transform="translate(50.594587, 22.138436)"><g><path d="M 1.140625 1.125 C 0.617188 1.125 0.195312 0.953125 -0.125 0.609375 C -0.457031 0.265625 -0.625 -0.222656 -0.625 -0.859375 C -0.625 -1.796875 -0.285156 -2.847656 0.390625 -4.015625 C 1.066406 -5.179688 1.921875 -6.171875 2.953125 -6.984375 C 3.992188 -7.796875 5.007812 -8.203125 6 -8.203125 C 6.625 -8.203125 7.140625 -8.035156 7.546875 -7.703125 C 7.960938 -7.367188 8.171875 -6.9375 8.171875 -6.40625 C 8.171875 -6.039062 8.066406 -5.773438 7.859375 -5.609375 C 7.648438 -5.453125 7.363281 -5.375 7 -5.375 C 7.082031 -5.664062 7.125 -5.945312 7.125 -6.21875 C 7.125 -6.613281 7.023438 -6.929688 6.828125 -7.171875 C 6.640625 -7.421875 6.347656 -7.546875 5.953125 -7.546875 C 5.253906 -7.546875 4.515625 -7.15625 3.734375 -6.375 C 2.960938 -5.601562 2.316406 -4.671875 1.796875 -3.578125 C 1.285156 -2.492188 1.03125 -1.5625 1.03125 -0.78125 C 1.03125 -0.164062 1.242188 0.140625 1.671875 0.140625 C 2.304688 0.140625 3.054688 -0.363281 3.921875 -1.375 C 4.785156 -2.382812 5.707031 -3.613281 6.6875 -5.0625 C 6.894531 -5.03125 7.109375 -4.960938 7.328125 -4.859375 C 7.546875 -4.753906 7.65625 -4.625 7.65625 -4.46875 C 7.65625 -4.34375 7.578125 -4.140625 7.421875 -3.859375 C 7.273438 -3.578125 7.179688 -3.414062 7.140625 -3.375 C 6.867188 -2.90625 6.65625 -2.492188 6.5 -2.140625 C 6.34375 -1.785156 6.265625 -1.453125 6.265625 -1.140625 C 6.265625 -0.867188 6.332031 -0.625 6.46875 -0.40625 C 6.601562 -0.195312 6.804688 -0.09375 7.078125 -0.09375 C 7.535156 -0.09375 8.113281 -0.421875 8.8125 -1.078125 C 9.519531 -1.742188 10.21875 -2.675781 10.90625 -3.875 L 11.140625 -3.640625 C 10.804688 -2.785156 10.375 -2.023438 9.84375 -1.359375 C 9.320312 -0.703125 8.757812 -0.191406 8.15625 0.171875 C 7.550781 0.535156 6.96875 0.71875 6.40625 0.71875 C 5.84375 0.71875 5.414062 0.550781 5.125 0.21875 C 4.832031 -0.101562 4.6875 -0.492188 4.6875 -0.953125 C 4.6875 -1.160156 4.707031 -1.394531 4.75 -1.65625 C 4.039062 -0.695312 3.398438 0.00390625 2.828125 0.453125 C 2.265625 0.898438 1.703125 1.125 1.140625 1.125 Z M 1.140625 1.125 "/></g></g></g><g fill="#000000" fill-opacity="1"><g transform="translate(61.02071, 22.138436)"><g><path d="M 7.71875 0.484375 C 7.175781 0.484375 6.757812 0.34375 6.46875 0.0625 C 6.1875 -0.21875 6.046875 -0.585938 6.046875 -1.046875 C 6.046875 -1.253906 6.082031 -1.5 6.15625 -1.78125 C 6.226562 -2.0625 6.304688 -2.335938 6.390625 -2.609375 C 6.484375 -2.890625 6.5625 -3.191406 6.625 -3.515625 C 6.695312 -3.835938 6.734375 -4.125 6.734375 -4.375 C 6.734375 -5.15625 6.414062 -5.546875 5.78125 -5.546875 C 5.175781 -5.546875 4.539062 -5.226562 3.875 -4.59375 C 3.21875 -3.957031 2.628906 -3.25 2.109375 -2.46875 C 1.597656 -1.6875 1.015625 -0.742188 0.359375 0.359375 C 0.0859375 0.359375 -0.15625 0.3125 -0.375 0.21875 C -0.601562 0.132812 -0.78125 0.00390625 -0.90625 -0.171875 C -0.90625 -0.242188 -0.800781 -0.53125 -0.59375 -1.03125 C -0.195312 -2.050781 0.125 -2.976562 0.375 -3.8125 C 0.632812 -4.644531 0.769531 -5.390625 0.78125 -6.046875 C 0.894531 -6.171875 1.054688 -6.285156 1.265625 -6.390625 C 1.472656 -6.492188 1.679688 -6.546875 1.890625 -6.546875 C 2.316406 -6.546875 2.53125 -6.335938 2.53125 -5.921875 C 2.53125 -5.679688 2.457031 -5.265625 2.3125 -4.671875 C 2.175781 -4.078125 1.992188 -3.441406 1.765625 -2.765625 C 2.535156 -3.953125 3.347656 -4.953125 4.203125 -5.765625 C 5.066406 -6.578125 5.910156 -6.984375 6.734375 -6.984375 C 7.328125 -6.984375 7.769531 -6.769531 8.0625 -6.34375 C 8.363281 -5.925781 8.515625 -5.421875 8.515625 -4.828125 C 8.515625 -4.472656 8.46875 -4.132812 8.375 -3.8125 C 8.289062 -3.5 8.160156 -3.132812 7.984375 -2.71875 C 7.835938 -2.375 7.722656 -2.070312 7.640625 -1.8125 C 7.566406 -1.5625 7.53125 -1.304688 7.53125 -1.046875 C 7.53125 -0.441406 7.769531 -0.140625 8.25 -0.140625 C 8.789062 -0.140625 9.351562 -0.5 9.9375 -1.21875 C 10.519531 -1.9375 11.070312 -2.820312 11.59375 -3.875 L 11.859375 -3.5625 C 10.710938 -0.863281 9.332031 0.484375 7.71875 0.484375 Z M 7.71875 0.484375 "/></g></g></g><g fill="#000000" fill-opacity="1"><g transform="translate(72.164229, 22.138436)"><g><path d="M 1.40625 0.71875 C 0.945312 0.71875 0.535156 0.546875 0.171875 0.203125 C -0.191406 -0.140625 -0.375 -0.640625 -0.375 -1.296875 C -0.375 -2.171875 -0.0390625 -3.191406 0.625 -4.359375 C 1.289062 -5.535156 2.125 -6.535156 3.125 -7.359375 C 4.132812 -8.191406 5.109375 -8.609375 6.046875 -8.609375 C 6.742188 -8.609375 7.09375 -8.359375 7.09375 -7.859375 C 7.09375 -7.796875 7.078125 -7.6875 7.046875 -7.53125 C 6.890625 -7.769531 6.585938 -7.890625 6.140625 -7.890625 C 5.347656 -7.890625 4.578125 -7.507812 3.828125 -6.75 C 3.078125 -6 2.46875 -5.113281 2 -4.09375 C 1.53125 -3.070312 1.296875 -2.234375 1.296875 -1.578125 C 1.296875 -1.222656 1.367188 -0.941406 1.515625 -0.734375 C 1.671875 -0.535156 1.882812 -0.4375 2.15625 -0.4375 C 2.582031 -0.4375 3.101562 -0.707031 3.71875 -1.25 C 4.34375 -1.800781 4.972656 -2.578125 5.609375 -3.578125 C 6.253906 -4.585938 6.820312 -5.726562 7.3125 -7 C 8.5625 -10.21875 9.601562 -12.722656 10.4375 -14.515625 C 11.269531 -16.316406 11.972656 -17.21875 12.546875 -17.21875 C 12.671875 -17.21875 12.78125 -17.164062 12.875 -17.0625 C 12.976562 -16.957031 13.03125 -16.820312 13.03125 -16.65625 C 13.03125 -16.414062 12.898438 -16.003906 12.640625 -15.421875 C 12.390625 -14.847656 11.976562 -13.953125 11.40625 -12.734375 C 10.226562 -10.285156 9.285156 -8.164062 8.578125 -6.375 C 7.878906 -4.582031 7.53125 -3.015625 7.53125 -1.671875 C 7.53125 -1.148438 7.554688 -0.796875 7.609375 -0.609375 C 7.671875 -0.421875 7.828125 -0.328125 8.078125 -0.328125 C 8.410156 -0.328125 8.800781 -0.472656 9.25 -0.765625 C 9.707031 -1.066406 10.160156 -1.484375 10.609375 -2.015625 C 11.054688 -2.554688 11.441406 -3.175781 11.765625 -3.875 L 12.046875 -3.65625 C 11.742188 -2.863281 11.328125 -2.140625 10.796875 -1.484375 C 10.273438 -0.828125 9.710938 -0.3125 9.109375 0.0625 C 8.515625 0.4375 7.945312 0.625 7.40625 0.625 C 6.863281 0.625 6.460938 0.445312 6.203125 0.09375 C 5.953125 -0.257812 5.828125 -0.679688 5.828125 -1.171875 C 5.828125 -1.710938 5.976562 -2.566406 6.28125 -3.734375 C 5.46875 -2.390625 4.628906 -1.3125 3.765625 -0.5 C 2.898438 0.3125 2.113281 0.71875 1.40625 0.71875 Z M 1.40625 0.71875 "/></g></g></g><g fill="#000000" fill-opacity="1"><g transform="translate(83.47513, 22.138436)"><g><path d="M 1.140625 1.125 C 0.617188 1.125 0.195312 0.953125 -0.125 0.609375 C -0.457031 0.265625 -0.625 -0.222656 -0.625 -0.859375 C -0.625 -1.796875 -0.285156 -2.847656 0.390625 -4.015625 C 1.066406 -5.179688 1.921875 -6.171875 2.953125 -6.984375 C 3.992188 -7.796875 5.007812 -8.203125 6 -8.203125 C 6.625 -8.203125 7.140625 -8.035156 7.546875 -7.703125 C 7.960938 -7.367188 8.171875 -6.9375 8.171875 -6.40625 C 8.171875 -6.039062 8.066406 -5.773438 7.859375 -5.609375 C 7.648438 -5.453125 7.363281 -5.375 7 -5.375 C 7.082031 -5.664062 7.125 -5.945312 7.125 -6.21875 C 7.125 -6.613281 7.023438 -6.929688 6.828125 -7.171875 C 6.640625 -7.421875 6.347656 -7.546875 5.953125 -7.546875 C 5.253906 -7.546875 4.515625 -7.15625 3.734375 -6.375 C 2.960938 -5.601562 2.316406 -4.671875 1.796875 -3.578125 C 1.285156 -2.492188 1.03125 -1.5625 1.03125 -0.78125 C 1.03125 -0.164062 1.242188 0.140625 1.671875 0.140625 C 2.304688 0.140625 3.054688 -0.363281 3.921875 -1.375 C 4.785156 -2.382812 5.707031 -3.613281 6.6875 -5.0625 C 6.894531 -5.03125 7.109375 -4.960938 7.328125 -4.859375 C 7.546875 -4.753906 7.65625 -4.625 7.65625 -4.46875 C 7.65625 -4.34375 7.578125 -4.140625 7.421875 -3.859375 C 7.273438 -3.578125 7.179688 -3.414062 7.140625 -3.375 C 6.867188 -2.90625 6.65625 -2.492188 6.5 -2.140625 C 6.34375 -1.785156 6.265625 -1.453125 6.265625 -1.140625 C 6.265625 -0.867188 6.332031 -0.625 6.46875 -0.40625 C 6.601562 -0.195312 6.804688 -0.09375 7.078125 -0.09375 C 7.535156 -0.09375 8.113281 -0.421875 8.8125 -1.078125 C 9.519531 -1.742188 10.21875 -2.675781 10.90625 -3.875 L 11.140625 -3.640625 C 10.804688 -2.785156 10.375 -2.023438 9.84375 -1.359375 C 9.320312 -0.703125 8.757812 -0.191406 8.15625 0.171875 C 7.550781 0.535156 6.96875 0.71875 6.40625 0.71875 C 5.84375 0.71875 5.414062 0.550781 5.125 0.21875 C 4.832031 -0.101562 4.6875 -0.492188 4.6875 -0.953125 C 4.6875 -1.160156 4.707031 -1.394531 4.75 -1.65625 C 4.039062 -0.695312 3.398438 0.00390625 2.828125 0.453125 C 2.265625 0.898438 1.703125 1.125 1.140625 1.125 Z M 1.140625 1.125 "/></g></g></g><g fill="#000000" fill-opacity="1"><g transform="translate(93.901257, 22.138436)"><g><path d="M 7.71875 0.484375 C 7.175781 0.484375 6.757812 0.34375 6.46875 0.0625 C 6.1875 -0.21875 6.046875 -0.585938 6.046875 -1.046875 C 6.046875 -1.253906 6.082031 -1.5 6.15625 -1.78125 C 6.226562 -2.0625 6.304688 -2.335938 6.390625 -2.609375 C 6.484375 -2.890625 6.5625 -3.191406 6.625 -3.515625 C 6.695312 -3.835938 6.734375 -4.125 6.734375 -4.375 C 6.734375 -5.15625 6.414062 -5.546875 5.78125 -5.546875 C 5.175781 -5.546875 4.539062 -5.226562 3.875 -4.59375 C 3.21875 -3.957031 2.628906 -3.25 2.109375 -2.46875 C 1.597656 -1.6875 1.015625 -0.742188 0.359375 0.359375 C 0.0859375 0.359375 -0.15625 0.3125 -0.375 0.21875 C -0.601562 0.132812 -0.78125 0.00390625 -0.90625 -0.171875 C -0.90625 -0.242188 -0.800781 -0.53125 -0.59375 -1.03125 C -0.195312 -2.050781 0.125 -2.976562 0.375 -3.8125 C 0.632812 -4.644531 0.769531 -5.390625 0.78125 -6.046875 C 0.894531 -6.171875 1.054688 -6.285156 1.265625 -6.390625 C 1.472656 -6.492188 1.679688 -6.546875 1.890625 -6.546875 C 2.316406 -6.546875 2.53125 -6.335938 2.53125 -5.921875 C 2.53125 -5.679688 2.457031 -5.265625 2.3125 -4.671875 C 2.175781 -4.078125 1.992188 -3.441406 1.765625 -2.765625 C 2.535156 -3.953125 3.347656 -4.953125 4.203125 -5.765625 C 5.066406 -6.578125 5.910156 -6.984375 6.734375 -6.984375 C 7.328125 -6.984375 7.769531 -6.769531 8.0625 -6.34375 C 8.363281 -5.925781 8.515625 -5.421875 8.515625 -4.828125 C 8.515625 -4.472656 8.46875 -4.132812 8.375 -3.8125 C 8.289062 -3.5 8.160156 -3.132812 7.984375 -2.71875 C 7.835938 -2.375 7.722656 -2.070312 7.640625 -1.8125 C 7.566406 -1.5625 7.53125 -1.304688 7.53125 -1.046875 C 7.53125 -0.441406 7.769531 -0.140625 8.25 -0.140625 C 8.789062 -0.140625 9.351562 -0.5 9.9375 -1.21875 C 10.519531 -1.9375 11.070312 -2.820312 11.59375 -3.875 L 11.859375 -3.5625 C 10.710938 -0.863281 9.332031 0.484375 7.71875 0.484375 Z M 7.71875 0.484375 "/></g></g></g></g></g></g></svg>