<svg xmlns="http://www.w3.org/2000/svg" xmlns:xlink="http://www.w3.org/1999/xlink" width="1080" zoomAndPan="magnify" viewBox="0 0 810 809.999993" height="1080" preserveAspectRatio="xMidYMid meet" version="1.0"><defs><g/><clipPath id="f4af3bce76"><path d="M 0.078125 28 L 70 28 L 70 141 L 0.078125 141 Z M 0.078125 28 " clip-rule="nonzero"/></clipPath><clipPath id="bc79663a24"><rect x="0" width="615" y="0" height="168"/></clipPath></defs><rect x="-81" width="972" fill="#ffffff" y="-80.999999" height="971.999992" fill-opacity="1"/><rect x="-81" width="972" fill="#55aca0" y="-80.999999" height="971.999992" fill-opacity="1"/><g transform="matrix(1, 0, 0, 1, 100, 321)"><g clip-path="url(#bc79663a24)"><g clip-path="url(#f4af3bce76)"><g fill="#ffffff" fill-opacity="1"><g transform="translate(1.214937, 128.487705)"><g><path d="M 28.328125 12.140625 C 23.117188 12.140625 18.28125 11.207031 13.8125 9.34375 C 9.351562 7.488281 5.796875 4.675781 3.140625 0.90625 C 0.484375 -2.863281 -0.84375 -7.445312 -0.84375 -12.84375 C -0.84375 -19.445312 0.96875 -24.210938 4.59375 -27.140625 C 8.226562 -30.078125 12.375 -31.546875 17.03125 -31.546875 C 14.519531 -28.847656 12.609375 -25.867188 11.296875 -22.609375 C 9.992188 -19.347656 9.34375 -16.09375 9.34375 -12.84375 C 9.34375 -7.257812 11.179688 -2.609375 14.859375 1.109375 C 18.535156 4.835938 23.816406 6.703125 30.703125 6.703125 C 35.078125 6.703125 39.238281 5.910156 43.1875 4.328125 C 47.144531 2.742188 50.378906 0.421875 52.890625 -2.640625 C 55.398438 -5.710938 56.65625 -9.390625 56.65625 -13.671875 C 56.65625 -17.398438 55.722656 -20.679688 53.859375 -23.515625 C 52.003906 -26.347656 49.679688 -28.765625 46.890625 -30.765625 C 44.097656 -32.773438 40.378906 -35.175781 35.734375 -37.96875 C 30.984375 -40.75 27.1875 -43.1875 24.34375 -45.28125 C 21.507812 -47.375 19.113281 -49.910156 17.15625 -52.890625 C 15.207031 -55.867188 14.234375 -59.3125 14.234375 -63.21875 C 14.234375 -68.613281 15.90625 -74.21875 19.25 -80.03125 C 22.601562 -85.851562 27.328125 -90.71875 33.421875 -94.625 C 39.515625 -98.53125 46.378906 -100.484375 54.015625 -100.484375 C 59.128906 -100.484375 62.847656 -99.226562 65.171875 -96.71875 C 67.503906 -94.207031 68.671875 -90.8125 68.671875 -86.53125 C 68.671875 -81.875 67.550781 -76.660156 65.3125 -70.890625 C 63.082031 -65.128906 60.617188 -60.109375 57.921875 -55.828125 C 54.847656 -56.472656 53.3125 -58.472656 53.3125 -61.828125 C 53.3125 -63.597656 53.660156 -65.597656 54.359375 -67.828125 C 55.054688 -70.054688 56.054688 -72.847656 57.359375 -76.203125 C 58.753906 -79.828125 59.800781 -82.78125 60.5 -85.0625 C 61.195312 -87.34375 61.546875 -89.367188 61.546875 -91.140625 C 61.546875 -93.085938 60.960938 -94.570312 59.796875 -95.59375 C 58.640625 -96.625 56.617188 -97.140625 53.734375 -97.140625 C 48.242188 -97.140625 43.148438 -95.441406 38.453125 -92.046875 C 33.753906 -88.648438 30.007812 -84.53125 27.21875 -79.6875 C 24.425781 -74.851562 23.03125 -70.4375 23.03125 -66.4375 C 23.03125 -63.457031 23.84375 -60.800781 25.46875 -58.46875 C 27.09375 -56.144531 29.113281 -54.125 31.53125 -52.40625 C 33.957031 -50.6875 37.265625 -48.660156 41.453125 -46.328125 C 46.472656 -43.453125 50.519531 -40.875 53.59375 -38.59375 C 56.664062 -36.3125 59.289062 -33.425781 61.46875 -29.9375 C 63.65625 -26.445312 64.75 -22.328125 64.75 -17.578125 C 64.75 -11.441406 62.957031 -6.140625 59.375 -1.671875 C 55.800781 2.796875 51.222656 6.210938 45.640625 8.578125 C 40.054688 10.953125 34.285156 12.140625 28.328125 12.140625 Z M 28.328125 12.140625 "/></g></g></g></g><g fill="#ffffff" fill-opacity="1"><g transform="translate(76.024066, 128.487705)"><g><path d="M 15.078125 6.140625 C 9.585938 6.140625 5.375 4.625 2.4375 1.59375 C -0.488281 -1.425781 -1.953125 -5.304688 -1.953125 -10.046875 C -1.953125 -15.535156 -0.140625 -21.441406 3.484375 -27.765625 C 7.117188 -34.097656 11.703125 -39.425781 17.234375 -43.75 C 22.773438 -48.082031 28.195312 -50.25 33.5 -50.25 C 39.257812 -50.25 42.140625 -47.410156 42.140625 -41.734375 C 42.140625 -37.171875 40.414062 -32.910156 36.96875 -28.953125 C 33.53125 -25.003906 29.113281 -21.769531 23.71875 -19.25 C 18.320312 -16.738281 12.925781 -15.207031 7.53125 -14.65625 C 7.164062 -13.070312 6.984375 -11.394531 6.984375 -9.625 C 6.984375 -6.28125 7.816406 -3.488281 9.484375 -1.25 C 11.160156 0.976562 14 2.09375 18 2.09375 C 23.675781 2.09375 29.398438 -0.273438 35.171875 -5.015625 C 40.941406 -9.765625 45.640625 -15.628906 49.265625 -22.609375 L 50.9375 -21.359375 C 47.21875 -13.078125 42.054688 -6.421875 35.453125 -1.390625 C 28.847656 3.628906 22.054688 6.140625 15.078125 6.140625 Z M 8.234375 -17.3125 C 12.140625 -18.707031 16.234375 -20.660156 20.515625 -23.171875 C 24.796875 -25.679688 28.445312 -28.632812 31.46875 -32.03125 C 34.488281 -35.425781 36 -38.984375 36 -42.703125 C 36 -43.816406 35.789062 -44.628906 35.375 -45.140625 C 34.957031 -45.660156 34.191406 -45.921875 33.078125 -45.921875 C 30.191406 -45.921875 27.050781 -44.476562 23.65625 -41.59375 C 20.257812 -38.707031 17.140625 -35.03125 14.296875 -30.5625 C 11.460938 -26.09375 9.441406 -21.675781 8.234375 -17.3125 Z M 8.234375 -17.3125 "/></g></g></g><g fill="#ffffff" fill-opacity="1"><g transform="translate(122.500636, 128.487705)"><g><path d="M 9.078125 5.4375 C 6.285156 5.4375 4.304688 4.109375 3.140625 1.453125 C 1.972656 -1.191406 1.390625 -4.976562 1.390625 -9.90625 C 1.390625 -11.675781 1.671875 -17.769531 2.234375 -28.1875 C 2.421875 -30.976562 2.742188 -32.769531 3.203125 -33.5625 C 3.671875 -34.351562 4.835938 -34.75 6.703125 -34.75 C 8.285156 -34.75 9.285156 -34.445312 9.703125 -33.84375 C 10.117188 -33.238281 10.328125 -32.050781 10.328125 -30.28125 C 10.328125 -28.425781 10.140625 -24.984375 9.765625 -19.953125 C 9.304688 -15.492188 9.078125 -11.445312 9.078125 -7.8125 C 9.078125 -5.019531 9.304688 -3.019531 9.765625 -1.8125 C 10.234375 -0.601562 11.070312 0 12.28125 0 C 15.351562 0 19.070312 -3.140625 23.4375 -9.421875 C 27.8125 -15.703125 31.769531 -22.75 35.3125 -30.5625 C 35.5 -36.425781 36.125 -40.519531 37.1875 -42.84375 C 38.257812 -45.164062 39.773438 -46.328125 41.734375 -46.328125 C 43.316406 -46.328125 44.546875 -45.742188 45.421875 -44.578125 C 46.304688 -43.421875 46.75 -42.238281 46.75 -41.03125 C 46.75 -40.101562 46.285156 -38.800781 45.359375 -37.125 C 44.242188 -34.976562 43.382812 -32.859375 42.78125 -30.765625 C 42.175781 -28.679688 41.875 -25.867188 41.875 -22.328125 C 41.875 -19.253906 42.3125 -16.71875 43.1875 -14.71875 C 44.070312 -12.71875 45.816406 -11.71875 48.421875 -11.71875 C 50.472656 -11.71875 52.378906 -12.507812 54.140625 -14.09375 C 55.910156 -15.675781 57.679688 -18.328125 59.453125 -22.046875 L 61.265625 -20.65625 C 57.921875 -12.84375 53.316406 -8.9375 47.453125 -8.9375 C 44.285156 -8.9375 41.703125 -10.070312 39.703125 -12.34375 C 37.703125 -14.625 36.378906 -18 35.734375 -22.46875 C 31.910156 -14.84375 27.554688 -8.285156 22.671875 -2.796875 C 17.796875 2.691406 13.265625 5.4375 9.078125 5.4375 Z M 9.078125 5.4375 "/></g></g></g><g fill="#ffffff" fill-opacity="1"><g transform="translate(179.305339, 128.487705)"><g><path d="M 26.796875 -60.296875 C 25.117188 -60.296875 23.742188 -60.6875 22.671875 -61.46875 C 21.609375 -62.257812 21.078125 -63.398438 21.078125 -64.890625 C 21.078125 -66.753906 22.191406 -68.429688 24.421875 -69.921875 C 26.648438 -71.410156 28.929688 -72.15625 31.265625 -72.15625 C 34.335938 -72.15625 35.875 -70.710938 35.875 -67.828125 C 35.875 -66.054688 34.914062 -64.359375 33 -62.734375 C 31.09375 -61.109375 29.023438 -60.296875 26.796875 -60.296875 Z M 10.046875 3.625 C 6.609375 3.625 3.957031 2.53125 2.09375 0.34375 C 0.226562 -1.84375 -0.703125 -4.65625 -0.703125 -8.09375 C -0.703125 -11.71875 0.34375 -16.738281 2.4375 -23.15625 C 4.53125 -29.582031 7.132812 -35.210938 10.25 -40.046875 C 13.375 -44.890625 16.425781 -47.3125 19.40625 -47.3125 C 20.238281 -47.3125 20.957031 -47.03125 21.5625 -46.46875 C 22.164062 -45.914062 22.46875 -45.171875 22.46875 -44.234375 C 22.46875 -42.929688 20.976562 -39.816406 18 -34.890625 C 14.925781 -29.773438 12.484375 -25.191406 10.671875 -21.140625 C 8.859375 -17.097656 7.953125 -13.257812 7.953125 -9.625 C 7.953125 -6.375 8.488281 -4.164062 9.5625 -3 C 10.632812 -1.832031 12.378906 -1.25 14.796875 -1.25 C 22.046875 -1.25 29.207031 -8.367188 36.28125 -22.609375 L 37.546875 -21.21875 C 34.941406 -13.394531 31.101562 -7.296875 26.03125 -2.921875 C 20.957031 1.441406 15.628906 3.625 10.046875 3.625 Z M 10.046875 3.625 "/></g></g></g><g fill="#ffffff" fill-opacity="1"><g transform="translate(212.941541, 128.487705)"><g><path d="M 11.578125 4.1875 C 7.765625 4.1875 4.953125 2.882812 3.140625 0.28125 C 1.328125 -2.320312 0.421875 -5.8125 0.421875 -10.1875 C 0.421875 -18.5625 3.300781 -29.9375 9.0625 -44.3125 C 14.832031 -58.6875 21.273438 -71.640625 28.390625 -83.171875 C 35.515625 -94.710938 40.660156 -100.484375 43.828125 -100.484375 C 45.128906 -100.484375 46.21875 -99.34375 47.09375 -97.0625 C 47.976562 -94.78125 48.421875 -92.476562 48.421875 -90.15625 C 48.421875 -85.875 46.675781 -79.566406 43.1875 -71.234375 C 39.707031 -62.910156 35.128906 -54.46875 29.453125 -45.90625 C 23.773438 -37.351562 17.722656 -30.425781 11.296875 -25.125 C 10.085938 -19.726562 9.484375 -15.03125 9.484375 -11.03125 C 9.484375 -3.863281 11.53125 -0.28125 15.625 -0.28125 C 19.070312 -0.28125 22.585938 -2.460938 26.171875 -6.828125 C 29.753906 -11.203125 32.941406 -16.460938 35.734375 -22.609375 L 37.828125 -21.5 C 29.816406 -4.375 21.066406 4.1875 11.578125 4.1875 Z M 12.5625 -29.859375 C 17.675781 -34.984375 22.675781 -41.425781 27.5625 -49.1875 C 32.445312 -56.957031 36.425781 -64.398438 39.5 -71.515625 C 42.570312 -78.640625 44.109375 -83.785156 44.109375 -86.953125 C 44.109375 -88.441406 43.78125 -89.1875 43.125 -89.1875 C 41.820312 -89.1875 39.144531 -86 35.09375 -79.625 C 31.050781 -73.25 26.890625 -65.453125 22.609375 -56.234375 C 18.328125 -47.023438 14.976562 -38.234375 12.5625 -29.859375 Z M 12.5625 -29.859375 "/></g></g></g><g fill="#ffffff" fill-opacity="1"><g transform="translate(245.879896, 128.487705)"><g><path d="M 14.9375 7.8125 C 10.28125 7.8125 6.507812 6.273438 3.625 3.203125 C 0.738281 0.140625 -0.703125 -4.273438 -0.703125 -10.046875 C -0.703125 -16.097656 0.832031 -22.003906 3.90625 -27.765625 C 6.976562 -33.535156 10.910156 -38.210938 15.703125 -41.796875 C 20.492188 -45.378906 25.210938 -47.171875 29.859375 -47.171875 C 33.398438 -47.171875 35.9375 -46.171875 37.46875 -44.171875 C 39.007812 -42.171875 39.78125 -39.726562 39.78125 -36.84375 C 39.78125 -34.050781 39.148438 -31.65625 37.890625 -29.65625 C 36.628906 -27.65625 34.929688 -26.65625 32.796875 -26.65625 C 31.210938 -26.65625 29.863281 -27.351562 28.75 -28.75 C 30.144531 -29.40625 31.351562 -30.867188 32.375 -33.140625 C 33.394531 -35.421875 33.90625 -37.632812 33.90625 -39.78125 C 33.90625 -40.988281 33.671875 -41.867188 33.203125 -42.421875 C 32.742188 -42.984375 31.957031 -43.265625 30.84375 -43.265625 C 27.675781 -43.265625 24.300781 -41.378906 20.71875 -37.609375 C 17.144531 -33.835938 14.125 -29.253906 11.65625 -23.859375 C 9.1875 -18.460938 7.953125 -13.535156 7.953125 -9.078125 C 7.953125 -5.722656 8.742188 -2.953125 10.328125 -0.765625 C 11.910156 1.421875 14.515625 2.515625 18.140625 2.515625 C 23.816406 2.515625 29.421875 0.191406 34.953125 -4.453125 C 40.492188 -9.109375 44.753906 -15.207031 47.734375 -22.75 L 49.546875 -21.359375 C 47.398438 -15.773438 44.46875 -10.769531 40.75 -6.34375 C 37.03125 -1.925781 32.910156 1.535156 28.390625 4.046875 C 23.878906 6.554688 19.394531 7.8125 14.9375 7.8125 Z M 14.9375 7.8125 "/></g></g></g><g fill="#ffffff" fill-opacity="1"><g transform="translate(290.960769, 128.487705)"><g><path d="M 6.703125 6.5625 C 3.628906 6.5625 1.140625 5.5625 -0.765625 3.5625 C -2.671875 1.5625 -3.625 -1.300781 -3.625 -5.03125 C -3.625 -10.519531 -1.648438 -16.660156 2.296875 -23.453125 C 6.253906 -30.242188 11.253906 -36.007812 17.296875 -40.75 C 23.347656 -45.5 29.257812 -47.875 35.03125 -47.875 C 38.65625 -47.875 41.675781 -46.894531 44.09375 -44.9375 C 46.519531 -42.988281 47.734375 -40.476562 47.734375 -37.40625 C 47.734375 -35.257812 47.128906 -33.722656 45.921875 -32.796875 C 44.710938 -31.867188 43.035156 -31.40625 40.890625 -31.40625 C 41.359375 -33.070312 41.59375 -34.695312 41.59375 -36.28125 C 41.59375 -38.613281 41.03125 -40.5 39.90625 -41.9375 C 38.789062 -43.382812 37.070312 -44.109375 34.75 -44.109375 C 30.65625 -44.109375 26.351562 -41.828125 21.84375 -37.265625 C 17.332031 -32.703125 13.5625 -27.253906 10.53125 -20.921875 C 7.507812 -14.597656 6 -9.160156 6 -4.609375 C 6 -0.972656 7.253906 0.84375 9.765625 0.84375 C 13.492188 0.84375 17.867188 -2.109375 22.890625 -8.015625 C 27.910156 -13.929688 33.304688 -21.125 39.078125 -29.59375 C 40.285156 -29.40625 41.515625 -29.007812 42.765625 -28.40625 C 44.023438 -27.800781 44.65625 -27.03125 44.65625 -26.09375 C 44.65625 -25.351562 44.210938 -24.164062 43.328125 -22.53125 C 42.453125 -20.90625 41.921875 -19.953125 41.734375 -19.671875 C 40.148438 -16.972656 38.890625 -14.578125 37.953125 -12.484375 C 37.023438 -10.390625 36.5625 -8.460938 36.5625 -6.703125 C 36.5625 -5.117188 36.957031 -3.695312 37.75 -2.4375 C 38.539062 -1.1875 39.726562 -0.5625 41.3125 -0.5625 C 44.007812 -0.5625 47.40625 -2.488281 51.5 -6.34375 C 55.59375 -10.207031 59.640625 -15.628906 63.640625 -22.609375 L 65.03125 -21.21875 C 63.082031 -16.28125 60.570312 -11.878906 57.5 -8.015625 C 54.425781 -4.160156 51.117188 -1.164062 47.578125 0.96875 C 44.046875 3.113281 40.65625 4.1875 37.40625 4.1875 C 34.144531 4.1875 31.65625 3.234375 29.9375 1.328125 C 28.21875 -0.578125 27.359375 -2.878906 27.359375 -5.578125 C 27.359375 -6.785156 27.492188 -8.132812 27.765625 -9.625 C 23.585938 -4.039062 19.84375 0.0507812 16.53125 2.65625 C 13.226562 5.257812 9.953125 6.5625 6.703125 6.5625 Z M 6.703125 6.5625 "/></g></g></g><g fill="#ffffff" fill-opacity="1"><g transform="translate(351.812977, 128.487705)"><g><path d="M 45.078125 2.796875 C 41.910156 2.796875 39.488281 1.976562 37.8125 0.34375 C 36.144531 -1.28125 35.3125 -3.441406 35.3125 -6.140625 C 35.3125 -7.347656 35.519531 -8.765625 35.9375 -10.390625 C 36.351562 -12.023438 36.796875 -13.632812 37.265625 -15.21875 C 37.816406 -16.882812 38.300781 -18.648438 38.71875 -20.515625 C 39.144531 -22.378906 39.359375 -24.054688 39.359375 -25.546875 C 39.359375 -30.097656 37.5 -32.375 33.78125 -32.375 C 30.238281 -32.375 26.535156 -30.515625 22.671875 -26.796875 C 18.816406 -23.078125 15.375 -18.9375 12.34375 -14.375 C 9.320312 -9.8125 5.90625 -4.320312 2.09375 2.09375 C 0.507812 2.09375 -0.929688 1.835938 -2.234375 1.328125 C -3.535156 0.816406 -4.554688 0.046875 -5.296875 -0.984375 C -5.296875 -1.441406 -4.691406 -3.113281 -3.484375 -6 C -1.160156 -11.957031 0.742188 -17.378906 2.234375 -22.265625 C 3.722656 -27.148438 4.515625 -31.5 4.609375 -35.3125 C 5.253906 -36.050781 6.179688 -36.722656 7.390625 -37.328125 C 8.609375 -37.929688 9.820312 -38.234375 11.03125 -38.234375 C 13.539062 -38.234375 14.796875 -37.023438 14.796875 -34.609375 C 14.796875 -33.210938 14.375 -30.769531 13.53125 -27.28125 C 12.695312 -23.789062 11.628906 -20.09375 10.328125 -16.1875 C 14.796875 -23.070312 19.539062 -28.882812 24.5625 -33.625 C 29.582031 -38.375 34.515625 -40.75 39.359375 -40.75 C 42.796875 -40.75 45.375 -39.515625 47.09375 -37.046875 C 48.820312 -34.585938 49.6875 -31.632812 49.6875 -28.1875 C 49.6875 -26.144531 49.429688 -24.191406 48.921875 -22.328125 C 48.410156 -20.460938 47.640625 -18.320312 46.609375 -15.90625 C 45.773438 -13.863281 45.125 -12.097656 44.65625 -10.609375 C 44.195312 -9.117188 43.96875 -7.628906 43.96875 -6.140625 C 43.96875 -2.609375 45.363281 -0.84375 48.15625 -0.84375 C 51.3125 -0.84375 54.585938 -2.929688 57.984375 -7.109375 C 61.378906 -11.296875 64.613281 -16.460938 67.6875 -22.609375 L 69.21875 -20.796875 C 62.519531 -5.066406 54.472656 2.796875 45.078125 2.796875 Z M 45.078125 2.796875 "/></g></g></g><g fill="#ffffff" fill-opacity="1"><g transform="translate(416.852278, 128.487705)"><g><path d="M 8.234375 4.1875 C 5.535156 4.1875 3.113281 3.1875 0.96875 1.1875 C -1.164062 -0.8125 -2.234375 -3.71875 -2.234375 -7.53125 C -2.234375 -12.65625 -0.28125 -18.632812 3.625 -25.46875 C 7.53125 -32.3125 12.414062 -38.148438 18.28125 -42.984375 C 24.144531 -47.828125 29.820312 -50.25 35.3125 -50.25 C 39.40625 -50.25 41.453125 -48.804688 41.453125 -45.921875 C 41.453125 -45.546875 41.359375 -44.894531 41.171875 -43.96875 C 40.242188 -45.363281 38.476562 -46.0625 35.875 -46.0625 C 31.21875 -46.0625 26.703125 -43.847656 22.328125 -39.421875 C 17.953125 -35.003906 14.390625 -29.816406 11.640625 -23.859375 C 8.898438 -17.910156 7.53125 -13.03125 7.53125 -9.21875 C 7.53125 -7.164062 7.972656 -5.535156 8.859375 -4.328125 C 9.742188 -3.117188 10.976562 -2.515625 12.5625 -2.515625 C 15.070312 -2.515625 18.140625 -4.117188 21.765625 -7.328125 C 25.398438 -10.535156 29.078125 -15.070312 32.796875 -20.9375 C 36.515625 -26.800781 39.816406 -33.453125 42.703125 -40.890625 C 49.960938 -59.679688 56.035156 -74.3125 60.921875 -84.78125 C 65.804688 -95.25 69.921875 -100.484375 73.265625 -100.484375 C 74.015625 -100.484375 74.664062 -100.179688 75.21875 -99.578125 C 75.78125 -98.972656 76.0625 -98.207031 76.0625 -97.28125 C 76.0625 -95.882812 75.316406 -93.488281 73.828125 -90.09375 C 72.335938 -86.695312 69.921875 -81.460938 66.578125 -74.390625 C 59.691406 -60.054688 54.203125 -47.65625 50.109375 -37.1875 C 46.015625 -26.726562 43.96875 -17.585938 43.96875 -9.765625 C 43.96875 -6.691406 44.128906 -4.617188 44.453125 -3.546875 C 44.773438 -2.484375 45.679688 -1.953125 47.171875 -1.953125 C 49.128906 -1.953125 51.429688 -2.8125 54.078125 -4.53125 C 56.734375 -6.257812 59.363281 -8.679688 61.96875 -11.796875 C 64.570312 -14.910156 66.804688 -18.515625 68.671875 -22.609375 L 70.34375 -21.359375 C 68.570312 -16.703125 66.148438 -12.46875 63.078125 -8.65625 C 60.015625 -4.84375 56.738281 -1.84375 53.25 0.34375 C 49.757812 2.53125 46.429688 3.625 43.265625 3.625 C 40.097656 3.625 37.769531 2.597656 36.28125 0.546875 C 34.789062 -1.492188 34.046875 -3.957031 34.046875 -6.84375 C 34.046875 -10 34.929688 -14.972656 36.703125 -21.765625 C 31.960938 -13.953125 27.054688 -7.671875 21.984375 -2.921875 C 16.910156 1.816406 12.328125 4.1875 8.234375 4.1875 Z M 8.234375 4.1875 "/></g></g></g><g fill="#ffffff" fill-opacity="1"><g transform="translate(482.868506, 128.487705)"><g><path d="M 6.703125 6.5625 C 3.628906 6.5625 1.140625 5.5625 -0.765625 3.5625 C -2.671875 1.5625 -3.625 -1.300781 -3.625 -5.03125 C -3.625 -10.519531 -1.648438 -16.660156 2.296875 -23.453125 C 6.253906 -30.242188 11.253906 -36.007812 17.296875 -40.75 C 23.347656 -45.5 29.257812 -47.875 35.03125 -47.875 C 38.65625 -47.875 41.675781 -46.894531 44.09375 -44.9375 C 46.519531 -42.988281 47.734375 -40.476562 47.734375 -37.40625 C 47.734375 -35.257812 47.128906 -33.722656 45.921875 -32.796875 C 44.710938 -31.867188 43.035156 -31.40625 40.890625 -31.40625 C 41.359375 -33.070312 41.59375 -34.695312 41.59375 -36.28125 C 41.59375 -38.613281 41.03125 -40.5 39.90625 -41.9375 C 38.789062 -43.382812 37.070312 -44.109375 34.75 -44.109375 C 30.65625 -44.109375 26.351562 -41.828125 21.84375 -37.265625 C 17.332031 -32.703125 13.5625 -27.253906 10.53125 -20.921875 C 7.507812 -14.597656 6 -9.160156 6 -4.609375 C 6 -0.972656 7.253906 0.84375 9.765625 0.84375 C 13.492188 0.84375 17.867188 -2.109375 22.890625 -8.015625 C 27.910156 -13.929688 33.304688 -21.125 39.078125 -29.59375 C 40.285156 -29.40625 41.515625 -29.007812 42.765625 -28.40625 C 44.023438 -27.800781 44.65625 -27.03125 44.65625 -26.09375 C 44.65625 -25.351562 44.210938 -24.164062 43.328125 -22.53125 C 42.453125 -20.90625 41.921875 -19.953125 41.734375 -19.671875 C 40.148438 -16.972656 38.890625 -14.578125 37.953125 -12.484375 C 37.023438 -10.390625 36.5625 -8.460938 36.5625 -6.703125 C 36.5625 -5.117188 36.957031 -3.695312 37.75 -2.4375 C 38.539062 -1.1875 39.726562 -0.5625 41.3125 -0.5625 C 44.007812 -0.5625 47.40625 -2.488281 51.5 -6.34375 C 55.59375 -10.207031 59.640625 -15.628906 63.640625 -22.609375 L 65.03125 -21.21875 C 63.082031 -16.28125 60.570312 -11.878906 57.5 -8.015625 C 54.425781 -4.160156 51.117188 -1.164062 47.578125 0.96875 C 44.046875 3.113281 40.65625 4.1875 37.40625 4.1875 C 34.144531 4.1875 31.65625 3.234375 29.9375 1.328125 C 28.21875 -0.578125 27.359375 -2.878906 27.359375 -5.578125 C 27.359375 -6.785156 27.492188 -8.132812 27.765625 -9.625 C 23.585938 -4.039062 19.84375 0.0507812 16.53125 2.65625 C 13.226562 5.257812 9.953125 6.5625 6.703125 6.5625 Z M 6.703125 6.5625 "/></g></g></g><g fill="#ffffff" fill-opacity="1"><g transform="translate(543.720742, 128.487705)"><g><path d="M 45.078125 2.796875 C 41.910156 2.796875 39.488281 1.976562 37.8125 0.34375 C 36.144531 -1.28125 35.3125 -3.441406 35.3125 -6.140625 C 35.3125 -7.347656 35.519531 -8.765625 35.9375 -10.390625 C 36.351562 -12.023438 36.796875 -13.632812 37.265625 -15.21875 C 37.816406 -16.882812 38.300781 -18.648438 38.71875 -20.515625 C 39.144531 -22.378906 39.359375 -24.054688 39.359375 -25.546875 C 39.359375 -30.097656 37.5 -32.375 33.78125 -32.375 C 30.238281 -32.375 26.535156 -30.515625 22.671875 -26.796875 C 18.816406 -23.078125 15.375 -18.9375 12.34375 -14.375 C 9.320312 -9.8125 5.90625 -4.320312 2.09375 2.09375 C 0.507812 2.09375 -0.929688 1.835938 -2.234375 1.328125 C -3.535156 0.816406 -4.554688 0.046875 -5.296875 -0.984375 C -5.296875 -1.441406 -4.691406 -3.113281 -3.484375 -6 C -1.160156 -11.957031 0.742188 -17.378906 2.234375 -22.265625 C 3.722656 -27.148438 4.515625 -31.5 4.609375 -35.3125 C 5.253906 -36.050781 6.179688 -36.722656 7.390625 -37.328125 C 8.609375 -37.929688 9.820312 -38.234375 11.03125 -38.234375 C 13.539062 -38.234375 14.796875 -37.023438 14.796875 -34.609375 C 14.796875 -33.210938 14.375 -30.769531 13.53125 -27.28125 C 12.695312 -23.789062 11.628906 -20.09375 10.328125 -16.1875 C 14.796875 -23.070312 19.539062 -28.882812 24.5625 -33.625 C 29.582031 -38.375 34.515625 -40.75 39.359375 -40.75 C 42.796875 -40.75 45.375 -39.515625 47.09375 -37.046875 C 48.820312 -34.585938 49.6875 -31.632812 49.6875 -28.1875 C 49.6875 -26.144531 49.429688 -24.191406 48.921875 -22.328125 C 48.410156 -20.460938 47.640625 -18.320312 46.609375 -15.90625 C 45.773438 -13.863281 45.125 -12.097656 44.65625 -10.609375 C 44.195312 -9.117188 43.96875 -7.628906 43.96875 -6.140625 C 43.96875 -2.609375 45.363281 -0.84375 48.15625 -0.84375 C 51.3125 -0.84375 54.585938 -2.929688 57.984375 -7.109375 C 61.378906 -11.296875 64.613281 -16.460938 67.6875 -22.609375 L 69.21875 -20.796875 C 62.519531 -5.066406 54.472656 2.796875 45.078125 2.796875 Z M 45.078125 2.796875 "/></g></g></g></g></g></svg>